HIERARCHY
ROOT Hips
{
	OFFSET 0.000000 0.000000 0.000000
	CHANNELS 6 Xposition Yposition Zposition Zrotation Yrotation Xrotation 
	JOINT LHipJoint
	{
		OFFSET 0.000000 0.000000 0.000000
		CHANNELS 3 Zrotation Yrotation Xrotation
		JOINT LeftUpLeg
		{
			OFFSET 1.363060 -1.794630 0.839290
			CHANNELS 3 Zrotation Yrotation Xrotation
			JOINT LeftLeg
			{
				OFFSET 2.448110 -6.726130 0.000000
				CHANNELS 3 Zrotation Yrotation Xrotation
				JOINT LeftFoot
				{
					OFFSET 2.562200 -7.039590 0.000000
					CHANNELS 3 Zrotation Yrotation Xrotation
					JOINT LeftToeBase
					{
						OFFSET 0.157640 -0.433110 2.322550
						CHANNELS 3 Zrotation Yrotation Xrotation
						End Site
						{
							OFFSET 0.000000 0.000000 0.000000
						}
					}
				}
			}
		}
	}
	JOINT RHipJoint
	{
		OFFSET 0.000000 0.000000 0.000000
		CHANNELS 3 Zrotation Yrotation Xrotation
		JOINT RightUpLeg
		{
			OFFSET -1.305520 -1.794630 0.839290
			CHANNELS 3 Zrotation Yrotation Xrotation
			JOINT RightLeg
			{
				OFFSET -2.542530 -6.985550 0.000000
				CHANNELS 3 Zrotation Yrotation Xrotation
				JOINT RightFoot
				{
					OFFSET -2.568260 -7.056230 0.000000
					CHANNELS 3 Zrotation Yrotation Xrotation
					JOINT RightToeBase
					{
						OFFSET -0.164730 -0.452590 2.363150
						CHANNELS 3 Zrotation Yrotation Xrotation
						End Site
						{
							OFFSET 0.000000 0.000000 0.000000
						}
					}
				}
			}
		}
	}
	JOINT LowerBack
	{
		OFFSET 0.000000 0.000000 0.000000
		CHANNELS 3 Zrotation Yrotation Xrotation
		JOINT Spine
		{
			OFFSET 0.028270 2.035590 -0.193380
			CHANNELS 3 Zrotation Yrotation Xrotation
			JOINT Spine1
			{
				OFFSET 0.056720 2.048850 -0.042750
				CHANNELS 3 Zrotation Yrotation Xrotation
				JOINT Neck
				{
					OFFSET 0.000000 0.000000 0.000000
					CHANNELS 3 Zrotation Yrotation Xrotation
					JOINT Neck1
					{
						OFFSET -0.054170 1.746240 0.172020
						CHANNELS 3 Zrotation Yrotation Xrotation
						JOINT Head
						{
							OFFSET 0.104070 1.761360 -0.123970
							CHANNELS 3 Zrotation Yrotation Xrotation
							End Site
							{
								OFFSET 0.000000 0.000000 0.000000
							}
						}
					}
				}
				JOINT LeftShoulder
				{
					OFFSET 0.000000 0.000000 0.000000
					CHANNELS 3 Zrotation Yrotation Xrotation
					JOINT LeftArm
					{
						OFFSET 3.362410 1.200890 -0.311210
						CHANNELS 3 Zrotation Yrotation Xrotation
						JOINT LeftForeArm
						{
							OFFSET 4.983000 -0.000000 -0.000000
							CHANNELS 3 Zrotation Yrotation Xrotation
							JOINT LeftHand
							{
								OFFSET 3.483560 -0.000000 -0.000000
								CHANNELS 3 Zrotation Yrotation Xrotation
								JOINT LeftFingerBase
								{
									OFFSET 0.000000 0.000000 0.000000
									CHANNELS 3 Zrotation Yrotation Xrotation
									JOINT LeftHandIndex1
									{
										OFFSET 0.715260 -0.000000 -0.000000
										CHANNELS 3 Zrotation Yrotation Xrotation
										End Site
										{
											OFFSET 0.000000 0.000000 0.000000
										}
									}
								}
								JOINT LThumb
								{
									OFFSET 0.000000 0.000000 0.000000
									CHANNELS 3 Zrotation Yrotation Xrotation
									End Site
									{
										OFFSET 0.000000 0.000000 0.000000
									}
								}
							}
						}
					}
				}
				JOINT RightShoulder
				{
					OFFSET 0.000000 0.000000 0.000000
					CHANNELS 3 Zrotation Yrotation Xrotation
					JOINT RightArm
					{
						OFFSET -3.136600 1.374050 -0.404650
						CHANNELS 3 Zrotation Yrotation Xrotation
						JOINT RightForeArm
						{
							OFFSET -5.241900 -0.000000 -0.000000
							CHANNELS 3 Zrotation Yrotation Xrotation
							JOINT RightHand
							{
								OFFSET -3.444170 -0.000000 -0.000000
								CHANNELS 3 Zrotation Yrotation Xrotation
								JOINT RightFingerBase
								{
									OFFSET 0.000000 0.000000 0.000000
									CHANNELS 3 Zrotation Yrotation Xrotation
									JOINT RightHandIndex1
									{
										OFFSET -0.622530 -0.000000 -0.000000
										CHANNELS 3 Zrotation Yrotation Xrotation
										End Site
										{
											OFFSET 0.000000 0.000000 0.000000
										}
									}
								}
								JOINT RThumb
								{
									OFFSET 0.000000 0.000000 0.000000
									CHANNELS 3 Zrotation Yrotation Xrotation
									End Site
									{
										OFFSET 0.000000 0.000000 0.000000
									}
								}
							}
						}
					}
				}
			}
		}
	}
}
MOTION
Frames: 4
Frame Time: 0.008333
-11.764779 17.029670 -1.368736 1.376761 87.067639 12.529446 -11.356668 3.424480 -0.862806 -5.065652 6.835079 -3.529128 -0.747963 1.859173 32.322193 0.537741 1.837636 4.667766 0.302700 -0.000000 -80.299500 8.198111 -0.963255 3.810927 9.511833 9.514743 -29.966841 2.890698 0.033020 8.096295 0.408493 1.539813 7.013644 -0.242800 0.000000 -25.816800 1.855906 -2.619351 -2.691946 -0.515364 -2.920331 -3.453446 -7.894489 -2.992801 0.119943 10.554749 -4.443854 -5.570720 -4.618727 -0.363604 0.506914 0.000000 0.000000 0.000000 -4.418334 2.668631 2.199641 -55.395546 -16.630503 10.182848 -2.845579 -41.852179 -0.016931 7.265983 -0.068616 -0.013220 -0.143892 0.155323 0.000000 0.000000 0.000000 0.000000 0.000000 0.000000 0.000000 20.665100 -3.216665 1.308600 68.198045 -1.172688 -8.697940 3.715570 12.588342 0.006813 -0.338308 4.335082 -0.016017 0.086658 -0.051343 -0.000000 0.000000 0.000000 0.000000 0.000000 0.000000 0.000000 
-11.575007 17.044979 -1.347653 -8.027594 86.942618 2.988746 -11.574070 3.447164 -0.939460 -4.239543 7.528299 -4.836991 -0.457698 2.061646 35.250036 0.669971 2.122130 7.409283 0.366200 0.000000 -80.332000 8.085016 -1.034022 3.847777 10.137027 9.997133 -29.441748 2.926501 -0.039230 8.926859 0.389390 1.417877 6.730882 -0.281800 0.000000 -23.949600 2.432359 -2.484517 -2.702641 -0.393827 -2.831595 -3.470371 -7.864362 -2.906808 0.100409 10.422757 -4.379421 -5.583259 -4.617888 -0.363643 0.506493 0.000000 0.000000 0.000000 -4.606465 2.911320 2.145555 -56.130938 -16.017446 10.241378 -2.843069 -41.521668 -0.016291 7.225067 -0.062720 -0.012449 -0.140510 0.150515 0.000000 0.000000 0.000000 0.000000 0.000000 0.000000 0.000000 20.492618 -3.063026 1.294497 68.291721 -1.009935 -8.491063 3.740815 12.637238 0.006912 -0.283156 4.329451 -0.013911 0.087314 -0.051872 -0.000000 0.000000 0.000000 0.000000 0.000000 0.000000 0.000000 
-11.387999 17.061049 -1.326467 -17.252992 86.798158 -6.366371 -11.740786 3.420709 -1.019000 -3.465096 8.185086 -6.216728 -0.175432 2.228858 38.198874 0.850320 2.647062 10.133445 0.497200 0.000000 -78.724300 8.000018 -1.099106 3.871978 10.800289 10.354036 -28.896234 2.972579 -0.100880 9.701142 0.371206 1.347846 6.237490 -0.304300 -0.000000 -22.473100 3.021872 -2.364875 -2.694248 -0.271491 -2.758023 -3.483916 -7.833983 -2.835564 0.078916 10.303600 -4.312005 -5.597557 -4.615843 -0.363560 0.505306 0.000000 0.000000 0.000000 -4.755842 3.127194 2.096194 -56.907966 -15.388448 10.281792 -2.841064 -41.107718 -0.015656 7.169055 -0.049740 -0.011282 -0.136826 0.145791 0.000000 0.000000 0.000000 0.000000 0.000000 0.000000 0.000000 20.327521 -2.911695 1.282308 68.394409 -0.806407 -8.235870 3.762069 12.720339 0.007005 -0.230618 4.325823 -0.011905 0.087856 -0.052497 -0.000000 0.000000 0.000000 0.000000 0.000000 0.000000 0.000000 
-11.204053 17.077551 -1.305293 -26.067541 86.653354 -15.305902 -11.872476 3.336677 -1.098607 -2.757551 8.776723 -7.655632 0.088093 2.360363 41.156338 1.067325 3.445152 12.657517 0.739500 0.000000 -75.463200 7.925776 -1.170375 3.882999 11.489072 10.586545 -28.310103 3.028761 -0.150092 10.385559 0.349786 1.302591 5.568577 -0.317300 0.000000 -21.256200 3.603222 -2.266931 -2.668958 -0.152566 -2.704248 -3.495745 -7.803297 -2.783914 0.049658 10.195378 -4.217612 -5.603898 -4.613459 -0.363501 0.505976 0.000000 0.000000 0.000000 -4.872967 3.302667 2.056950 -57.709862 -14.734982 10.303866 -2.839775 -40.622036 -0.015035 7.095099 -0.024928 -0.009318 -0.132886 0.141198 0.000000 0.000000 0.000000 0.000000 0.000000 0.000000 0.000000 20.167191 -2.741296 1.272106 68.514161 -0.591242 -8.000931 3.779139 12.847740 0.007093 -0.166638 4.324740 -0.009398 0.088140 -0.053275 -0.000000 0.000000 0.000000 0.000000 0.000000 0.000000 0.000000 
